# xmcd CD database file
#
# Track frame offsets:
#	150
#	15762
#	28766
#	51304
#	75225
#	93350
#	109767
#	130678
#	158937
#	181352
#	202271
#	217907
#	234342
#	260502
#
# Disc length: 3678 seconds
#
# Revision: 0
# Processed by: cddbd v1.5.2PL0 Copyright (c) Steve Scherf et al.
# Submitted via: CDex 1.51
#
DISCID=ae0e5c0e
DTITLE=Gustav Peter Wöhler - Get back
DYEAR=2009
DGENRE=Country
TTITLE0=Get back
TTITLE1=Big Yellow Taxi
TTITLE2=Washing of the Water
TTITLE3=Your Song
TTITLE4=Son of a Preacher Man
TTITLE5=Make you feel my Love
TTITLE6=Let it be
TTITLE7=Bad
TTITLE8=I still haven`t found what I`m looking for
TTITLE9=Imagine
TTITLE10=May you never
TTITLE11=Friday I`m in Love
TTITLE12=I don`t wanna miss a thing
TTITLE13=Go leave
EXTD=YEAR: 2009
EXTT0=
EXTT1=
EXTT2=
EXTT3=
EXTT4=
EXTT5=
EXTT6=
EXTT7=
EXTT8=
EXTT9=
EXTT10=
EXTT11=
EXTT12=
EXTT13=
PLAYORDER=
